<svg xmlns="http://www.w3.org/2000/svg" viewBox="-9.33 -9.33 834.88 329.77" width="835" height="330"><path d="M18.09 228.1624875Q18.09 223.8424875 19.17 221.5474875Q20.25 219.2524875 22.41 218.4424875L40.5 213.58248749999998L36.45 217.9024875V65.62248749999998L40.77 70.21248749999998L18.09 65.08248749999998Q18.09 61.302487499999984 19.17 59.00748749999998Q20.25 56.71248749999998 22.950000000000003 55.092487499999976H91.26Q115.02000000000001 55.092487499999976 128.52 65.08248749999998Q142.02 75.0724875 142.02 92.3524875Q142.02 103.42248749999999 136.62 112.6024875Q131.22 121.78248749999999 121.77000000000001 127.45248749999999Q112.32000000000001 133.12248749999998 100.44000000000001 134.2024875L101.52000000000001 132.31248749999997Q115.02000000000001 132.8524875 125.82000000000001 139.0624875Q136.62 145.2724875 142.965 155.26248750000002Q149.31 165.2524875 149.31 177.4024875Q149.31 192.5224875 142.155 203.9974875Q135.0 215.4724875 122.04 221.8174875Q109.08000000000001 228.1624875 91.53 228.1624875ZM87.21000000000001 216.55248749999998Q105.84 216.55248749999998 115.69500000000001 206.9674875Q125.55000000000001 197.3824875 125.55000000000001 179.2924875Q125.55000000000001 159.8524875 115.155 149.99748749999998Q104.76 140.1424875 84.78 140.1424875H55.89L58.59 137.7124875V214.3924875L55.89 211.1524875Q62.1 213.58248749999998 70.875 215.06748749999997Q79.65 216.55248749999998 87.21000000000001 216.55248749999998ZM58.59 130.69248749999997 55.080000000000005 126.64248749999999Q56.160000000000004 127.1824875 61.02000000000001 127.5874875Q65.88000000000001 127.9924875 72.22500000000001 128.1274875Q78.57000000000001 128.2624875 83.97 128.2624875Q100.71000000000001 128.2624875 110.16000000000001 120.4324875Q119.61000000000001 112.6024875 119.61000000000001 97.7524875Q119.61000000000001 82.6324875 110.16000000000001 74.6674875Q100.71000000000001 66.70248749999999 83.16000000000001 66.70248749999999Q76.68 66.70248749999999 69.795 67.78248749999999Q62.910000000000004 68.86248749999999 55.89 71.02248749999998L58.59 68.59248749999998ZM207.36 231.4024875Q194.67000000000002 231.4024875 186.3 223.9774875Q177.93 216.55248749999998 177.93 204.1324875Q177.93 188.74248749999998 187.78500000000003 179.02248749999998Q197.64000000000001 169.30248749999998 217.35000000000002 164.7124875L252.72000000000003 156.6124875L249.21 159.5824875V139.33248749999998Q249.21 125.0224875 244.35000000000002 118.4074875Q239.49 111.7924875 229.23000000000002 111.7924875Q216.81 111.7924875 210.06 119.21748749999999Q203.31 126.64248749999999 203.31 140.68248749999998Q201.96 142.0324875 199.53 142.8424875Q197.1 143.6524875 194.67000000000002 143.6524875Q190.08 143.6524875 187.38 140.9524875Q184.68 138.25248749999997 184.68 133.6624875Q184.68 124.75248749999999 190.89 118.00248749999999Q197.1 111.25248749999999 208.035 107.33748749999998Q218.97 103.42248749999999 232.47000000000003 103.42248749999999Q252.45 103.42248749999999 261.765 113.4124875Q271.08000000000004 123.40248749999999 271.08000000000004 145.2724875V208.7224875Q271.08000000000004 213.3124875 272.97 215.74248749999998Q274.86 218.1724875 278.37 218.1724875Q281.34000000000003 218.1724875 284.985 216.55248749999998Q288.63 214.9324875 291.06 213.0424875L292.95000000000005 220.33248749999998Q288.63 225.4624875 281.88 228.4324875Q275.13 231.4024875 268.92 231.4024875Q260.28000000000003 231.4024875 255.42000000000002 225.86748749999998Q250.56 220.33248749999998 250.56 210.0724875H249.48000000000002Q241.92000000000002 220.33248749999998 230.85000000000002 225.86748749999998Q219.78 231.4024875 207.36 231.4024875ZM217.62 218.7124875Q227.34 218.7124875 236.25 213.8524875Q245.16000000000003 208.99248749999998 251.10000000000002 200.3524875L249.48000000000002 204.9424875V164.4424875L252.99 164.9824875L222.21 172.2724875Q210.60000000000002 174.9724875 204.52500000000003 181.5874875Q198.45000000000002 188.2024875 198.45000000000002 198.1924875Q198.45000000000002 207.6424875 203.58 213.17748749999998Q208.71 218.7124875 217.62 218.7124875ZM356.94 231.4024875Q341.55 231.4024875 333.18 221.2774875Q324.81 211.1524875 324.81 189.2824875V119.08248749999998L328.86 123.1324875L312.12 120.1624875Q310.23 119.89248749999999 309.15 117.59748749999999Q308.07 115.30248749999998 308.07 110.7124875Q318.33 109.36248749999999 323.595 108.68748749999999Q328.86 108.01248749999999 332.1 108.01248749999999Q339.39 108.01248749999999 343.03499999999997 111.52248749999998Q346.68 115.03248749999999 346.68 122.59248749999999V188.74248749999998Q346.68 203.3224875 352.485 210.2074875Q358.29 217.0924875 369.63 217.0924875Q376.92 217.0924875 383.265 214.6624875Q389.61 212.2324875 394.605 208.0474875Q399.6 203.8624875 403.11 198.7324875L401.22 203.3224875V119.08248749999998L405.27 123.1324875L388.26 120.1624875Q386.37 119.89248749999999 385.425 117.59748749999999Q384.48 115.30248749999998 384.48 110.7124875Q394.74 109.36248749999999 400.005 108.68748749999999Q405.27 108.01248749999999 408.24 108.01248749999999Q415.8 108.01248749999999 419.31 111.52248749999998Q422.82 115.03248749999999 422.82 122.59248749999999V208.7224875Q422.82 213.3124875 424.845 215.74248749999998Q426.87 218.1724875 430.38 218.1724875Q433.35 218.1724875 436.725 216.68748749999997Q440.1 215.2024875 442.8 213.0424875L444.96000000000004 220.33248749999998Q440.37 225.4624875 433.62 228.4324875Q426.87 231.4024875 420.66 231.4024875Q412.29 231.4024875 407.43 225.86748749999998Q402.57 220.33248749999998 402.57 210.0724875H401.22Q382.86 231.4024875 356.94 231.4024875ZM466.02 228.1624875Q466.02 219.5224875 470.34 218.4424875L485.72999999999996 213.3124875L482.76 217.0924875V117.73248749999999L486.0 121.78248749999999L470.07 118.81248749999999Q466.02 118.00248749999999 466.02 109.36248749999999Q476.28 107.7424875 481.54499999999996 107.0674875Q486.81 106.39248749999999 490.32 106.39248749999999Q497.34 106.39248749999999 500.30999999999995 109.90248749999998Q503.28 113.41248749999998 503.28 121.2424875V131.2324875L502.2 130.4224875H504.63Q514.89 118.00248749999999 528.525 110.71248749999998Q542.16 103.42248749999999 554.5799999999999 103.42248749999999Q569.7 103.42248749999999 576.99 114.2224875Q584.28 125.0224875 584.28 146.8924875V217.6324875L581.04 213.8524875L599.4 218.1724875Q599.4 222.2224875 598.4549999999999 224.2474875Q597.51 226.2724875 594.81 228.1624875H547.56Q547.56 219.5224875 551.88 218.4424875L565.38 214.3924875L562.41 218.1724875V147.43248749999998Q562.41 118.81248749999999 542.16 118.81248749999999Q534.6 118.81248749999999 527.04 121.9174875Q519.48 125.0224875 513.135 130.2874875Q506.78999999999996 135.55248749999998 502.46999999999997 141.7624875L504.63 136.6324875V217.6324875L501.39 213.8524875L519.75 218.1724875Q519.75 222.2224875 518.8050000000001 224.2474875Q517.86 226.2724875 514.89 228.1624875ZM627.21 228.1624875Q627.21 219.5224875 631.53 218.4424875L645.03 214.3924875L642.06 218.1724875V147.43248749999998Q642.06 118.81248749999999 621.81 118.81248749999999Q610.74 118.81248749999999 600.075 125.42748749999998Q589.41 132.0424875 582.66 141.49248749999998L579.6899999999999 130.4224875H583.74Q594.27 118.00248749999999 607.905 110.71248749999998Q621.54 103.42248749999999 633.96 103.42248749999999Q649.35 103.42248749999999 656.6400000000001 114.2224875Q663.9300000000001 125.0224875 663.9300000000001 146.8924875V216.55248749999998L660.69 213.0424875L680.67 218.1724875Q680.67 222.2224875 679.7249999999999 224.2474875Q678.78 226.2724875 676.0799999999999 228.1624875ZM753.84 231.4024875Q737.37 231.4024875 725.085 223.9774875Q712.8000000000001 216.55248749999998 706.0500000000001 203.3224875Q699.3000000000001 190.0924875 699.3000000000001 172.8124875Q699.3000000000001 153.1024875 707.5350000000001 137.4424875Q715.77 121.78248749999999 729.54 112.6024875Q743.3100000000001 103.42248749999999 759.51 103.42248749999999Q773.5500000000001 103.42248749999999 783.945 109.76748749999999Q794.34 116.11248749999999 800.28 127.45248749999999Q806.22 138.7924875 806.22 153.6424875Q806.22 158.7724875 804.33 160.5274875Q802.44 162.2824875 800.01 162.2824875H714.96V153.9124875L788.4000000000001 152.0224875L785.4300000000001 154.99248749999998Q785.97 142.0324875 782.325 132.5824875Q778.6800000000001 123.1324875 772.065 117.8674875Q765.45 112.6024875 756.54 112.6024875Q741.69 112.6024875 732.24 126.37248749999999Q722.7900000000001 140.1424875 722.7900000000001 165.2524875Q722.7900000000001 181.4524875 727.5150000000001 193.4674875Q732.24 205.4824875 741.4200000000001 212.2324875Q750.6 218.9824875 763.5600000000001 218.9824875Q774.36 218.9824875 784.35 213.4474875Q794.34 207.9124875 802.1700000000001 197.9224875L805.6800000000001 204.6724875Q800.01 212.7724875 791.64 218.8474875Q783.27 224.9224875 773.685 228.1624875Q764.1 231.4024875 753.84 231.4024875Z" fill="#8a7675"/><circle cx="201.81" cy="62.33" r="31.94" fill="#879f8f"/><circle cx="261.81" cy="62.33" r="32.72" fill="#d3816b"/><circle cx="231.42" cy="29.61" r="29.61" fill="#eaddca"/><path d="M234.56795141601563 311.10648749999996V274.0624875H263.26093908691405V279.2290357177734H240.5897556152344V289.57651215820306H260.8849390869141V294.74306037597654H240.5897556152344V305.93993928222653H263.58493908691406V311.10648749999996ZM303.58287817382814 311.7544875Q300.53114648437503 311.7544875 297.72971356201174 311.125457043457Q294.92828063964845 310.496426586914 292.7682806396484 309.1179632080078Q290.60828063964846 307.73949982910153 289.35971356201173 305.61963398437496Q288.111146484375 303.4997681396484 288.111146484375 300.5049632080078Q288.111146484375 300.19409736328123 288.1315794067383 299.90293275146485Q288.1520123291016 299.6117681396484 288.165146484375 299.39723151855463H294.2409506835938Q294.2278165283203 299.54463398437497 294.20081652832033 299.8679022949218Q294.17381652832034 300.1911706054687 294.17381652832034 300.4334389160156Q294.17381652832034 302.42558540039056 295.3442922363281 303.8127927978515Q296.5147679443359 305.20000019531244 298.64921319580077 305.9144026611327Q300.7836584472656 306.62880512695307 303.57413415527344 306.62880512695307Q305.0934510498047 306.62880512695307 306.4901522827148 306.4390734374999Q307.886853515625 306.24934174804685 309.0565975341797 305.8443417480469Q310.22634155273437 305.43934174804684 311.0910551147461 304.8132380493164Q311.9557686767578 304.1871343505859 312.4235126953125 303.3209574096679Q312.89125671386716 302.45478046874996 312.89125671386716 301.316426586914Q312.89125671386716 299.6059508789062 311.8864213256836 298.4814447143554Q310.8815859375 297.3569385498046 309.188616394043 296.6024019287109Q307.49564685058596 295.84786530761716 305.35754315185545 295.2545969970703Q303.219439453125 294.6613286865234 300.9602015991211 294.0673286865234Q298.7009637451172 293.4733286865234 296.56286004638673 292.6625969970703Q294.4247563476562 291.8518653076171 292.7317868041992 290.690133618164Q291.0388172607422 289.5284019287109 290.03398187255857 287.7522373168945Q289.029146484375 285.9760727050781 289.029146484375 283.46434101562494Q289.029146484375 281.0299508789062 290.0507744750977 279.1384875Q291.0724024658203 277.2470241210937 293.01203045654296 275.9780241210937Q294.95165844726563 274.7090241210937 297.6713596801758 274.06175581054686Q300.39106091308594 273.41448749999995 303.7872073974609 273.41448749999995Q306.7178049316406 273.41448749999995 309.28426831054685 274.0289204223632Q311.85073168945314 274.6433533447265 313.80932922363286 275.9400850341797Q315.7679267578125 277.2368167236328 316.87565844726566 279.2289813354492Q317.98339013671875 281.2211459472656 317.98339013671875 283.98974348144526V284.6377434814453H312.00245178222656V283.95326777343746Q312.00245178222656 282.2427920654296 310.9589456176758 281.0511517456054Q309.91543945312503 279.8595114257812 308.0765308227539 279.199840649414Q306.2376221923828 278.5401698730468 303.8382806396484 278.5401698730468Q300.974853515625 278.5401698730468 299.0301399536133 279.0976760375976Q297.0854263916016 279.6551822021484 296.09518853759766 280.67752375488277Q295.10495068359376 281.69986530761713 295.10495068359376 283.10093854980465Q295.10495068359376 284.62168256835935 296.1097860717773 285.6447558105468Q297.1146214599609 286.6678290527343 298.81415808105464 287.36836567382807Q300.5136947021484 288.0689022949218 302.6517984008789 288.6351706054687Q304.7899020996094 289.2014389160156 307.0425728759766 289.8158718383789Q309.29524365234374 290.43030476074216 311.4333473510742 291.2271706054687Q313.5714510498047 292.0240364501953 315.2709876708984 293.2193352172851Q316.9705242919922 294.414633984375 317.97535968017576 296.1834998291015Q318.98019506835936 297.95236567382807 318.98019506835936 300.4494998291015Q318.98019506835936 304.4892924316406 316.99459753417966 306.9878899658203Q315.009 309.48648749999995 311.53767077636724 310.62048749999997Q308.0663415527344 311.7544875 303.58287817382814 311.7544875ZM344.94395141601564 311.10648749999996V274.0624875H363.3754757080078Q367.34813415527344 274.0624875 369.9423292236328 275.50735334472654Q372.5365242919922 276.9522191894531 373.84055474853517 279.5391154907226Q375.1445852050781 282.12601179199214 375.1445852050781 285.62726777343744Q375.1445852050781 289.14019453124996 373.7405852050781 291.7942249877929Q372.3365852050781 294.44825544433587 369.66722552490234 295.9201212890624Q366.99786584472656 297.39198713378903 363.1682197265625 297.39198713378903H350.96575561523434V311.10648749999996ZM350.96575561523434 292.2254389160156H362.89968310546874Q365.7704271240234 292.2254389160156 367.4196040649414 290.4748290527343Q369.06878100585936 288.7242191894531 369.06878100585936 285.6535360839843Q369.06878100585936 283.60592622070305 368.37481146240236 282.1851517456054Q367.6808419189453 280.7643772705078 366.3206345214844 279.9967064941406Q364.96042712402345 279.2290357177734 362.89968310546874 279.2290357177734H350.96575561523434ZM395.8046707763672 311.10648749999996 410.3408781738281 274.0624875H418.0673408203125L432.6444140625 311.10648749999996H426.1205489501953L422.82219506835935 302.5395114257812H405.2882922363281L402.0030725097656 311.10648749999996ZM407.2264749755859 297.41382905273434H420.843146484375L416.70998767089844 286.54237727050776Q416.5071218261719 286.02864558105466 416.20355474853517 285.1850785034179Q415.89998767089844 284.3415114257812 415.54971936035156 283.3096760375976Q415.1994510498047 282.27784064941403 414.8426156616211 281.2124381835937Q414.4857802734375 280.1470357177734 414.1895119628906 279.28449909667967H413.8801094970703Q413.5429753417969 280.3513649414062 413.0642741088867 281.7553649414062Q412.58557287597654 283.1593649414062 412.12730456542965 284.44733448486323Q411.6690362548828 285.7353040283203 411.3596337890625 286.54237727050776ZM472.33726831054685 311.7544875Q466.6672683105469 311.7544875 462.6836707763672 309.71708503417966Q458.7000732421875 307.67968256835934 456.6064757080078 303.4341154907226Q454.51287817382814 299.18854841308587 454.51287817382814 292.58448749999997Q454.51287817382814 282.87615827636716 459.2254757080078 278.14532288818356Q463.9380732421875 273.41448749999995 472.3635366210938 273.41448749999995Q477.03234155273435 273.41448749999995 480.7182073974609 274.9673533447265Q484.4040732421875 276.5202191894531 486.5451036987305 279.6463838012695Q488.6861341552734 282.7725484130859 488.6861341552734 287.5668776367187H482.541732421875Q482.541732421875 284.5779262207031 481.2756591796875 282.577017590332Q480.0095859375 280.5761089599609 477.72773822021486 279.5581394165039Q475.4458905029297 278.5401698730468 472.419 278.5401698730468Q468.6287926025391 278.5401698730468 466.0017802734375 280.0171394165038Q463.37476794433593 281.4941089599609 462.0561580810547 284.485987133789Q460.73754821777345 287.47786530761715 460.73754821777345 292.0692924316406V293.24415827636716Q460.73754821777345 297.81078046874995 462.0561580810547 300.7763903320312Q463.37476794433593 303.74200019531247 465.9813473510742 305.1854026611328Q468.5879267578125 306.62880512695307 472.43213415527345 306.62880512695307Q475.5684880371094 306.62880512695307 477.89120159912113 305.63126850585934Q480.21391516113283 304.6337318847656 481.486555480957 302.6328232543945Q482.75919580078124 300.6319146240234 482.75919580078124 297.64296320800776H488.6861341552734Q488.6861341552734 302.46356074218744 486.53926831054684 305.58972535400386Q484.3924024658203 308.7158899658203 480.69996954345703 310.23518873291016Q477.0075366210938 311.7544875 472.33726831054685 311.7544875ZM514.3419514160156 311.10648749999996V274.0624875H520.3637556152344V311.10648749999996ZM564.8378049316406 311.7544875Q559.0729390869141 311.7544875 554.8937744750976 309.6557862670898Q550.7146098632812 307.55708503417964 548.4867440185546 303.2910850341797Q546.2588781738281 299.02508503417965 546.2588781738281 292.58448749999997Q546.2588781738281 286.08988996582025 548.4867440185546 281.8508899658203Q550.7146098632812 277.6118899658203 554.8937744750976 275.5131887329101Q559.0729390869141 273.41448749999995 564.8378049316406 273.41448749999995Q570.6566707763672 273.41448749999995 574.8154024658203 275.5131887329101Q578.9741341552734 277.6118899658203 581.202 281.8508899658203Q583.4298658447266 286.08988996582025 583.4298658447266 292.58448749999997Q583.4298658447266 299.02508503417965 581.202 303.2910850341797Q578.9741341552734 307.55708503417964 574.8154024658203 309.6557862670898Q570.6566707763672 311.7544875 564.8378049316406 311.7544875ZM564.8378049316406 306.62880512695307Q567.777146484375 306.62880512695307 570.074323425293 305.80567097167966Q572.371500366211 304.9825368164062 573.967408996582 303.3107318847656Q575.5633176269531 301.63892695312495 576.4046896362304 299.1191829345703Q577.2460616455078 296.5994389160156 577.2460616455078 293.20621918945307V292.04448749999995Q577.2460616455078 288.61040192871087 576.4046896362304 286.0702249877929Q575.5633176269531 283.530048046875 573.967408996582 281.85824311523436Q572.371500366211 280.18643818359374 570.074323425293 279.3633040283203Q567.777146484375 278.5401698730468 564.8378049316406 278.5401698730468Q561.8984633789063 278.5401698730468 559.607853515625 279.3633040283203Q557.3172436523437 280.18643818359374 555.7213350219727 281.85824311523436Q554.1254263916015 283.530048046875 553.3044873046874 286.0702249877929Q552.4835482177734 288.61040192871087 552.4835482177734 292.04448749999995V293.20621918945307Q552.4835482177734 296.5994389160156 553.3044873046874 299.1191829345703Q554.1254263916015 301.63892695312495 555.7213350219727 303.3107318847656Q557.3172436523437 304.9825368164062 559.607853515625 305.80567097167966Q561.8984633789063 306.62880512695307 564.8378049316406 306.62880512695307Z" fill="#879f8f"/></svg>